<?xml version="1.0" encoding="windows-1252"?>
<!-- Generator: Adobe Illustrator 19.0.0, SVG Export Plug-In . SVG Version: 6.00 Build 0)  -->
<svg version="1.1" id="Layer_1" xmlns="http://www.w3.org/2000/svg" xmlns:xlink="http://www.w3.org/1999/xlink" x="0px" y="0px" viewBox="0 0 512 512" style="enable-background:new 0 0 512 512;" xml:space="preserve">
<rect x="7.286" y="7.286" style="fill:#ED1F34;" width="497.43" height="497.43"/>
<polygon style="fill:#259245;" points="504.714,7.286 461.371,7.286 256,212.657 50.63,7.286 7.286,7.286 7.286,50.629 212.657,256   7.286,461.371 7.286,504.714 50.63,504.714 256,299.343 461.371,504.714 504.714,504.714 504.714,461.371 299.343,256   504.714,50.629 "/>
<polygon style="fill:#FFFFFF;" points="7.286,280.042 231.958,280.042 231.958,504.714 280.042,504.714 280.042,280.042   504.714,280.042 504.714,231.958 280.042,231.958 280.042,7.286 231.958,7.286 231.958,231.958 7.286,231.958 "/>
<path d="M512,461.366V50.634c0,0,0-0.007,0-0.01V7.286C512,3.262,508.738,0,504.714,0H7.286C3.262,0,0,3.262,0,7.286v43.338  c0,0.003,0,0.007,0,0.007v410.735c0,0,0,0.007,0,0.009v43.338C0,508.738,3.262,512,7.286,512h497.427  c4.025,0,7.286-3.262,7.286-7.286v-43.338C512,461.373,512,461.369,512,461.366z M280.043,272.756c-4.025,0-7.286,3.262-7.286,7.286  v149.28c0,4.025,3.262,7.286,7.286,7.286c4.025,0,7.286-3.262,7.286-7.286v-88.344l156.45,156.449h-156.45v-40.772  c0-4.025-3.262-7.286-7.286-7.286c-4.025,0-7.286,3.262-7.286,7.286v40.772h-33.512V323.39v-0.009v-43.338  c0-4.025-3.262-7.286-7.286-7.286H14.573v-33.512h25.876c4.025,0,7.286-3.262,7.286-7.286c0-4.025-3.262-7.286-7.286-7.286H14.573  V68.221l156.45,156.45H69.724c-4.025,0-7.286,3.262-7.286,7.286c0,4.025,3.262,7.286,7.286,7.286h162.233  c4.025,0,7.286-3.262,7.286-7.286V188.62v-0.009V14.573h33.512V188.61v0.009v43.338c0,4.025,3.262,7.286,7.286,7.286h217.384v33.512  H280.043V272.756z M224.671,497.427H68.221l156.45-156.45L224.671,497.427L224.671,497.427z M14.573,287.329h156.449L14.573,443.779  V287.329z M224.671,171.023L68.221,14.573h156.45L224.671,171.023L224.671,171.023z M287.329,14.573h156.45l-156.45,156.45  L287.329,14.573L287.329,14.573z M497.427,224.671h-156.45l156.45-156.45V224.671z M497.427,287.329v156.45l-156.45-156.45  L497.427,287.329L497.427,287.329z M497.427,47.61L320.366,224.671h-33.037v-33.037L464.39,14.573h33.037V47.61z M47.61,14.573  l177.061,177.061v33.037h-33.037L14.573,47.61V14.573H47.61z M14.573,464.39l177.06-177.061h33.038v33.037L47.61,497.427H14.573  V464.39z M464.39,497.427l-177.061-177.06v-33.038h33.037L497.427,464.39v33.037H464.39z"/>
<g>
</g>
<g>
</g>
<g>
</g>
<g>
</g>
<g>
</g>
<g>
</g>
<g>
</g>
<g>
</g>
<g>
</g>
<g>
</g>
<g>
</g>
<g>
</g>
<g>
</g>
<g>
</g>
<g>
</g>
<head xmlns=""/></svg>